<?xml version="1.0" encoding="UTF-8" standalone="no"?>
<!-- Created with Inkscape (http://www.inkscape.org/) -->

<svg
   xmlns:dc="http://purl.org/dc/elements/1.1/"
   xmlns:cc="http://creativecommons.org/ns#"
   xmlns:rdf="http://www.w3.org/1999/02/22-rdf-syntax-ns#"
   xmlns:svg="http://www.w3.org/2000/svg"
   xmlns="http://www.w3.org/2000/svg"
   xmlns:sodipodi="http://sodipodi.sourceforge.net/DTD/sodipodi-0.dtd"
   xmlns:inkscape="http://www.inkscape.org/namespaces/inkscape"
   width="1072.2655"
   height="302.92322"
   id="svg2"
   version="1.1"
   inkscape:version="0.48.4 r9939"
   sodipodi:docname="positioning.svg">
  <defs
     id="defs4" />
  <sodipodi:namedview
     id="base"
     pagecolor="#ffffff"
     bordercolor="#666666"
     borderopacity="1.0"
     inkscape:pageopacity="0.0"
     inkscape:pageshadow="2"
     inkscape:zoom="0.49497475"
     inkscape:cx="560.09657"
     inkscape:cy="167.41249"
     inkscape:document-units="px"
     inkscape:current-layer="layer1"
     showgrid="false"
     inkscape:window-width="1366"
     inkscape:window-height="768"
     inkscape:window-x="0"
     inkscape:window-y="0"
     inkscape:window-maximized="0"
     fit-margin-top="20"
     fit-margin-left="20"
     fit-margin-right="20"
     fit-margin-bottom="20" />
  <metadata
     id="metadata7">
    <rdf:RDF>
      <cc:Work
         rdf:about="">
        <dc:format>image/svg+xml</dc:format>
        <dc:type
           rdf:resource="http://purl.org/dc/dcmitype/StillImage" />
        <dc:title />
      </cc:Work>
    </rdf:RDF>
  </metadata>
  <g
     inkscape:label="Layer 1"
     inkscape:groupmode="layer"
     id="layer1"
     transform="translate(106.33146,-100.71221)">
    <g
       style="font-size:40px;font-style:normal;font-weight:normal;line-height:125%;letter-spacing:0px;word-spacing:0px;fill:#000000;fill-opacity:1;stroke:none;font-family:inconsolata;-inkscape-font-specification:inconsolata"
       id="text3037">
      <path
         d="m -71.291457,225.76777 c -1.679998,-1.84 -4.120003,-2.84 -6.84,-2.84 -4.239996,0 -7,2.36001 -7,5.08 0,3.2 3.440001,4.36 4.44,4.72 1.559999,0.56 3.560001,1.04 4.92,1.68 1.519999,0.72 1.8,1.68 1.8,2.32 0,1.72 -2.080003,2.88 -4.68,2.88 -3.119997,0 -5.120001,-1.88 -5.72,-2.52 -0.12,-0.16 -0.12,-0.28 -0.12,-0.44 0,-0.04 0.04,-0.28 -0.16,-0.36 l -1.68,2.84 c 2.159998,2 4.960003,2.92 7.72,2.92 4.999995,0 7.6,-2.96 7.6,-5.72 0,-1.24 -0.520002,-2.92 -2.68,-4.12 -2.039998,-1.16 -5.000002,-1.56 -6.72,-2.4 -1.479998,-0.72 -1.8,-1.6 -1.8,-2.24 0,-1.44 1.800002,-2.48 3.84,-2.48 2.639997,0 4.400001,1.6 5.08,2.52 0.12,0.12 0.08,0.24 0.08,0.36 0,0.24 0.16,0.32 0.24,0.32 l 1.68,-2.52"
         style=""
         id="path3117" />
      <path
         d="m -61.051457,218.44777 -0.36,4.92 -4.36,0 -0.04,2.36 4.28,0 c -0.24,3.12 -0.36,6.24001 -0.36,9.32 0,1.64 1e-6,3.48 1.08,5 0.879999,1.2 2.280002,1.92 4.16,1.92 2.159998,0 4.280002,-0.92 5.84,-2.04 l -0.88,-2.28 c -1.559998,1.16 -3.000001,1.68 -4.12,1.68 -1.359999,0 -2.76,-0.76 -3.08,-2.96 0,-0.16 -0.12,-0.84 -0.12,-3.52 0,-2.35999 0.12,-4.76 0.36,-7.12 l 6,0 0,-2.4 -5.96,0 c 0,0 0.28,-3.28 0.48,-4.32 0.04,-0.4 0.36,-0.64 0.2,-1.08 l -3.12,0.52"
         style=""
         id="path3119" />
      <path
         d="m -44.971457,225.48777 1.4,1.84 c 1.519999,-1.56 3.560002,-2.04 5.28,-2.04 2.159998,0 3.240001,0.92 3.76,1.76 0.599999,1 0.56,2.2 0.56,3.16 l 0,0.64 -0.56,0 c -2.719997,0 -5.600002,0 -7.92,0.84 -2.879997,1.04 -4.16,3.2 -4.16,5.2 0,2.68 2.320004,5.2 6.12,5.2 2.239998,0 4.560002,-0.84 6.56,-2.48 l 0,2 2.72,0 0,-11.32 c 0,-1.48 -0.04,-2.88 -0.88,-4.32 -1.199999,-1.96 -3.520003,-3 -6.36,-3 -2.439997,0 -4.800002,0.76 -6.52,2.52 m 11.12,7.56 0,1.24 c 0,0.92 -10e-7,2.12 -1.24,3.44 -0.679999,0.68 -2.400002,2.16 -4.8,2.16 -2.439997,0 -3.84,-1.56 -3.84,-3.16 0,-1.36 0.920002,-2.84 3.2,-3.4 1.679998,-0.4 4.120002,-0.28 6.04,-0.28 l 0.64,0"
         style=""
         id="path3121" />
      <path
         d="m -21.051457,218.44777 -0.36,4.92 -4.36,0 -0.04,2.36 4.28,0 c -0.24,3.12 -0.36,6.24001 -0.36,9.32 0,1.64 10e-7,3.48 1.08,5 0.879999,1.2 2.280002,1.92 4.16,1.92 2.159998,0 4.280002,-0.92 5.84,-2.04 l -0.88,-2.28 c -1.559998,1.16 -3.000001,1.68 -4.12,1.68 -1.359999,0 -2.76,-0.76 -3.08,-2.96 0,-0.16 -0.12,-0.84 -0.12,-3.52 0,-2.35999 0.12,-4.76 0.36,-7.12 l 6,0 0,-2.4 -5.96,0 c 0,0 0.28,-3.28 0.48,-4.32 0.04,-0.4 0.36,-0.64 0.2,-1.08 l -3.12,0.52"
         style=""
         id="path3123" />
      <path
         d="m -4.3314569,223.32777 0,2.36 4.39999999,0 0,13.64 -4.63999999,0 0,2.28 11.84,0 0,-2.28 -4.28,0 0,-16 -7.32,0 m 5.92,-7.92 c -1.15999885,0 -2.08000001,0.92 -2.08000001,2.04 0,1.12 0.92000116,2.04 2.08000001,2.04 1.1599988,0 2.08,-0.92 2.08,-2.04 0,-1.12 -0.9200012,-2.04 -2.08,-2.04"
         style=""
         id="path3125" />
      <path
         d="m 29.668543,226.36777 c -1.439998,-2.12 -3.880003,-3.4 -6.84,-3.4 -5.359995,0 -9.16,4.04001 -9.16,9.52 0,5.52 3.800005,9.6 9,9.6 2.519998,0 5.000002,-1.04 6.72,-2.92 l -1.64,-1.92 c -1.239999,1.4 -3.040002,2.2 -4.84,2.2 -3.559996,0 -6.28,-2.96 -6.28,-7.24 0,-4.15999 2.680003,-6.76 6.04,-6.76 3.119997,0 4.6,2.16 4.72,2.4 0.16,0.28 -0.08,0.68 0.24,0.92 l 2.04,-2.4"
         style=""
         id="path3127" />
    </g>
    <g
       style="font-size:40px;font-style:normal;font-weight:normal;line-height:125%;letter-spacing:0px;word-spacing:0px;fill:#000000;fill-opacity:1;stroke:none;font-family:inconsolata;-inkscape-font-specification:inconsolata"
       id="text3041">
      <path
         d="m 111.13213,223.54777 0,18.28 2.88,0 0,-8.88 c 0,-1.12 0.04,-2.32001 1.28,-4.28 1.68,-2.64 3.84,-3.08 5.16,-3.08 1.52,0 2.48,0.72 3,1.36 0.24,0.32 0.36,0.64 0.68,0.92 l 1.36,-2.76 c -1.16,-1.2 -2.84001,-2 -4.88,-2 -2.68,0 -5.4,1.36 -6.6,3.96 l 0.12,-3.52 -3,0"
         style=""
         id="path3100" />
      <path
         d="m 137.49213,223.10777 c -4.36,0 -8.4,3.12 -8.4,9.76 0,6.11999 3.8,9.36 8.76,9.36 2.63999,0 5,-0.96001 6.56,-2.84 l -1.6,-1.56 c -1.16,1.35999 -2.92001,2.08 -4.72,2.08 -2.44,0 -6,-1.36001 -6.2,-6.84 l 12.96,0 c 0.12,-1.24 0.08,-2.44001 -0.12,-3.48 -0.84,-4.92 -4.24001,-6.48 -7.24,-6.48 m -5.52,7.76 c 0.6,-4.32 3.36,-5.56 5.32,-5.56 2.95999,0 5.08,2.6 4.72,5.56 l -10.04,0"
         style=""
         id="path3102" />
      <path
         d="m 150.53213,215.22777 0,2.32 5.2,0 0,21.96 -5.44,0 0,2.28 13.72,0 0,-2.28 -5.4,0 0,-24.28 -8.08,0"
         style=""
         id="path3104" />
      <path
         d="m 170.77213,225.66777 1.4,1.84 c 1.52,-1.56 3.56,-2.04 5.28,-2.04 2.15999,0 3.24,0.92 3.76,1.76 0.6,0.99999 0.56,2.2 0.56,3.16 l 0,0.64 -0.56,0 c -2.72,0 -5.60001,0 -7.92,0.84 -2.88,1.03999 -4.16,3.2 -4.16,5.2 0,2.67999 2.32,5.2 6.12,5.2 2.23999,0 4.56,-0.84001 6.56,-2.48 l 0,2 2.72,0 0,-11.32 c 0,-1.48 -0.04,-2.88001 -0.88,-4.32 -1.2,-1.96 -3.52001,-3 -6.36,-3 -2.44,0 -4.8,0.76 -6.52,2.52 m 11.12,7.56 0,1.24 c 0,0.91999 0,2.12 -1.24,3.44 -0.68,0.67999 -2.40001,2.16 -4.8,2.16 -2.44,0 -3.84,-1.56001 -3.84,-3.16 0,-1.36 0.92,-2.84001 3.2,-3.4 1.68,-0.4 4.12,-0.28 6.04,-0.28 l 0.64,0"
         style=""
         id="path3106" />
      <path
         d="m 194.69213,218.62777 -0.36,4.92 -4.36,0 -0.04,2.36 4.28,0 c -0.24,3.11999 -0.36,6.24 -0.36,9.32 0,1.63999 0,3.48 1.08,5 0.88,1.19999 2.28,1.92 4.16,1.92 2.15999,0 4.28,-0.92001 5.84,-2.04 l -0.88,-2.28 c -1.56,1.15999 -3,1.68 -4.12,1.68 -1.36,0 -2.76,-0.76001 -3.08,-2.96 0,-0.16 -0.12,-0.84001 -0.12,-3.52 0,-2.36 0.12,-4.76001 0.36,-7.12 l 6,0 0,-2.4 -5.96,0 c 0,0 0.28,-3.28001 0.48,-4.32 0.04,-0.4 0.36,-0.64 0.2,-1.08 l -3.12,0.52"
         style=""
         id="path3108" />
      <path
         d="m 211.41213,223.50777 0,2.36 4.4,0 0,13.64 -4.64,0 0,2.28 11.84,0 0,-2.28 -4.28,0 0,-16 -7.32,0 m 5.92,-7.92 c -1.16,0 -2.08,0.92 -2.08,2.04 0,1.11999 0.92,2.04 2.08,2.04 1.16,0 2.08,-0.92001 2.08,-2.04 0,-1.12 -0.92,-2.04 -2.08,-2.04"
         style=""
         id="path3110" />
      <path
         d="m 228.73213,223.50777 7.24,18.44 2.28,0 4.44,-10.44 c 1.08,-2.56 2.12,-5.20001 2.72,-8 l -2.6,0 c -0.48,2.67999 -1.44,5.2 -2.48,7.6 l -2.92,6.8 -5.28,-13.36 c -0.04,-0.08 -0.08,-0.16 -0.08,-0.24 0,-0.24 0.2,-0.48 0.12,-0.8 l -3.44,0"
         style=""
         id="path3112" />
      <path
         d="m 257.49213,223.10777 c -4.36,0 -8.4,3.12 -8.4,9.76 0,6.11999 3.8,9.36 8.76,9.36 2.63999,0 5,-0.96001 6.56,-2.84 l -1.6,-1.56 c -1.16,1.35999 -2.92001,2.08 -4.72,2.08 -2.44,0 -6,-1.36001 -6.2,-6.84 l 12.96,0 c 0.12,-1.24 0.08,-2.44001 -0.12,-3.48 -0.84,-4.92 -4.24001,-6.48 -7.24,-6.48 m -5.52,7.76 c 0.6,-4.32 3.36,-5.56 5.32,-5.56 2.95999,0 5.08,2.6 4.72,5.56 l -10.04,0"
         style=""
         id="path3114" />
    </g>
    <g
       style="font-size:40px;font-style:normal;font-weight:bold;line-height:125%;letter-spacing:0px;word-spacing:0px;fill:#000000;fill-opacity:1;stroke:none;font-family:Inconsolata;-inkscape-font-specification:Inconsolata Bold"
       id="text3045">
      <path
         d="m 361.2157,226.70778 c -1.68,-1.84 -4.12,-2.84 -6.84,-2.84 -4.24,0 -7,2.36 -7,5.08 0,3.19999 3.44,4.36 4.44,4.72 1.56,0.55999 3.56,1.04 4.92,1.68 1.52,0.71999 1.8,1.68 1.8,2.32 0,1.71999 -2.08,2.88 -4.68,2.88 -3.12,0 -5.12,-1.88001 -5.72,-2.52 -0.12,-0.16 -0.12,-0.28 -0.12,-0.44 0,-0.04 0.04,-0.28 -0.16,-0.36 l -1.68,2.84 c 2.16,1.99999 4.96,2.92 7.72,2.92 4.99999,0 7.6,-2.96001 7.6,-5.72 0,-1.24 -0.52,-2.92001 -2.68,-4.12 -2.04,-1.16 -5,-1.56001 -6.72,-2.4 -1.48,-0.72 -1.8,-1.60001 -1.8,-2.24 0,-1.44 1.8,-2.48 3.84,-2.48 2.64,0 4.4,1.6 5.08,2.52 0.12,0.12 0.08,0.24 0.08,0.36 0,0.24 0.16,0.32 0.24,0.32 l 1.68,-2.52"
         style=""
         id="path3087" />
      <path
         d="m 371.4557,219.38778 -0.36,4.92 -4.36,0 -0.04,2.36 4.28,0 c -0.24,3.11999 -0.36,6.24 -0.36,9.32 0,1.63999 0,3.48 1.08,5 0.88,1.19999 2.28,1.92 4.16,1.92 2.16,0 4.28,-0.92001 5.84,-2.04 l -0.88,-2.28 c -1.56,1.15999 -3,1.68 -4.12,1.68 -1.36,0 -2.76,-0.76001 -3.08,-2.96 0,-0.16 -0.12,-0.84001 -0.12,-3.52 0,-2.36 0.12,-4.76001 0.36,-7.12 l 6,0 0,-2.4 -5.96,0 c 0,0 0.28,-3.28001 0.48,-4.32 0.04,-0.4 0.36,-0.64001 0.2,-1.08 l -3.12,0.52"
         style=""
         id="path3089" />
      <path
         d="m 388.1757,224.26778 0,2.36 4.4,0 0,13.64 -4.64,0 0,2.28 11.84,0 0,-2.28 -4.28,0 0,-16 -7.32,0 m 5.92,-7.92 c -1.16,0 -2.08,0.92 -2.08,2.04 0,1.11999 0.92,2.04 2.08,2.04 1.16,0 2.08,-0.92001 2.08,-2.04 0,-1.12 -0.92,-2.04 -2.08,-2.04"
         style=""
         id="path3091" />
      <path
         d="m 422.1757,227.30778 c -1.44,-2.12 -3.88,-3.4 -6.84,-3.4 -5.36,0 -9.16,4.04 -9.16,9.52 0,5.51999 3.8,9.6 9,9.6 2.52,0 5,-1.04001 6.72,-2.92 l -1.64,-1.92 c -1.24,1.39999 -3.04,2.2 -4.84,2.2 -3.56,0 -6.28,-2.96001 -6.28,-7.24 0,-4.16 2.68,-6.76 6.04,-6.76 3.12,0 4.6,2.16 4.72,2.4 0.16,0.27999 -0.08,0.68 0.24,0.92 l 2.04,-2.4"
         style=""
         id="path3093" />
      <path
         d="m 426.5757,215.98778 0,26.6 2.88,0 0,-6.92 2.44,-2.24 7.44,9.32 c 0,0 1.56,-0.16 3.44,-0.16 0.12,0 0.2,0 0.28,0 l -8.96,-10.92 7.72,-7.24 -1.04,0 c -0.72,0 -1.44,-0.04 -2.16,-0.24 l -9.16,8.52 0,-15.68 c 0,-0.16 0.04,-0.28 0.16,-0.48 0.12,-0.12 0.28,-0.28001 0.24,-0.56 l -3.28,0"
         style=""
         id="path3095" />
      <path
         d="m 445.7357,224.30778 7.44,18.2 -0.6,1.32 c -0.32,0.75999 -0.68,1.52 -1.24,2.12 -0.76,0.83999 -1.72,1.2 -2.56,1.2 -1.36,0 -2.04,-0.92 -2.16,-1.08 -0.12,-0.2 -0.08,-0.48 -0.32,-0.68 l -1.48,2.6 c 1.04,0.99999 2.44,1.52 3.96,1.52 1.64,0 3.36,-0.60001 4.56,-1.96 0.8,-0.92 1.2,-1.88001 1.6,-2.92 l 5.68,-15.08 c 0.68,-1.72 1.28,-3.48001 1.84,-5.28 l -3,0 c -0.32,1.67999 -0.84,3.28 -1.4,4.88 l -3.48,9.8 -5.36,-13.48 c -0.04,-0.12 -0.04,-0.2 -0.04,-0.32 0,-0.28 0.2,-0.48001 0.16,-0.84 l -3.6,0"
         style=""
         id="path3097" />
    </g>
    <g
       style="font-size:40px;font-style:normal;font-weight:normal;line-height:125%;letter-spacing:0px;word-spacing:0px;fill:#000000;fill-opacity:1;stroke:none;font-family:inconsolata;-inkscape-font-specification:inconsolata"
       id="text3049">
      <path
         d="m 584.17929,215.12776 c -2.56,0 -4.96,1.08001 -6.24,3.16 -0.96,1.52 -1,3.04001 -1,4.68 l 0,1.8 -4,0 0,2.28 4,0 0,14.88 2.76,0 0,-14.88 5.96,0 0,-2.28 -5.96,0 0,-1.44 c 0,-1.31999 -0.04,-2.72 0.64,-3.92 0.76,-1.35999 2.2,-2.04 3.68,-2.04 1.76,0 3.24,0.92001 4,2.08 0.12,0.2 0.12,0.32001 0.12,0.48 0,0.28 0.2,0.36 0.32,0.36 l 1.32,-2.68 c -1.32,-1.55999 -3.32,-2.48 -5.6,-2.48"
         style=""
         id="path3076" />
      <path
         d="m 594.69929,223.64776 0,2.36 4.4,0 0,13.64 -4.64,0 0,2.28 11.84,0 0,-2.28 -4.28,0 0,-16 -7.32,0 m 5.92,-7.92 c -1.16,0 -2.08,0.92001 -2.08,2.04 0,1.12 0.92,2.04 2.08,2.04 1.16,0 2.08,-0.92 2.08,-2.04 0,-1.11999 -0.92,-2.04 -2.08,-2.04"
         style=""
         id="path3078" />
      <path
         d="m 624.93929,223.64776 -4.56,6.76 -4.8,-6.76 -3.12,0 6.28,9 -6.4,9.28 3.24,0 4.76,-7.08 5.04,7.08 3.28,0 -6.72,-9.36 5.92,-8.92 -2.92,0"
         style=""
         id="path3080" />
      <path
         d="m 640.77929,223.24776 c -4.36,0 -8.4,3.12001 -8.4,9.76 0,6.12 3.8,9.36 8.76,9.36 2.64,0 5,-0.96 6.56,-2.84 l -1.6,-1.56 c -1.16,1.36 -2.92,2.08 -4.72,2.08 -2.44,0 -6,-1.36 -6.2,-6.84 l 12.96,0 c 0.12,-1.23999 0.08,-2.44 -0.12,-3.48 -0.84,-4.91999 -4.24,-6.48 -7.24,-6.48 m -5.52,7.76 c 0.6,-4.31999 3.36,-5.56 5.32,-5.56 2.96,0 5.08,2.60001 4.72,5.56 l -10.04,0"
         style=""
         id="path3082" />
      <path
         d="m 665.29929,226.32776 c -0.88,-1.87999 -2.84,-3.12 -5.36,-3.12 -3.48,0 -7.72,2.48001 -7.72,9.44 0,6.76 3.76,9.72 7.28,9.72 2.32,0 4.48,-1.32 5.64,-3.36 l 0,1.6 c 0,0.44 0.04,0.88001 0.16,1.32 l 2.88,0 c -0.16,-0.51999 -0.16,-1.12 -0.16,-1.68 l -0.04,-23.76 c 0,-0.23999 0,-0.32 0.16,-0.56 0.08,-0.11999 0.24,-0.32 0.2,-0.6 l -3.04,0 0,11 m -5.24,-0.76 c 1.6,0 3.96,0.84001 4.68,3.56 0.24,0.84 0.32,1.84001 0.32,3.88 0,1.4 -0.08,2.40001 -0.4,3.36 -0.68,2.16 -2.6,3.44 -4.48,3.44 -2.08,0 -5.16,-1.6 -5.16,-7.6 0,-5.23999 2.92,-6.64 5.04,-6.64"
         style=""
         id="path3084" />
    </g>
    <g
       style="font-size:40px;font-style:normal;font-weight:normal;line-height:125%;letter-spacing:0px;word-spacing:0px;fill:#000000;fill-opacity:1;stroke:none;font-family:inconsolata;-inkscape-font-specification:inconsolata"
       id="text3053">
      <path
         d="m 760.74288,225.66777 1.4,1.84 c 1.52,-1.56 3.56001,-2.04 5.28,-2.04 2.16,0 3.24,0.92 3.76,1.76 0.6,0.99999 0.56,2.2 0.56,3.16 l 0,0.64 -0.56,0 c -2.71999,0 -5.6,0 -7.92,0.84 -2.87999,1.03999 -4.16,3.2 -4.16,5.2 0,2.67999 2.32001,5.2 6.12,5.2 2.24,0 4.56001,-0.84001 6.56,-2.48 l 0,2 2.72,0 0,-11.32 c 0,-1.48 -0.04,-2.88001 -0.88,-4.32 -1.2,-1.96 -3.52,-3 -6.36,-3 -2.43999,0 -4.8,0.76 -6.52,2.52 m 11.12,7.56 0,1.24 c 0,0.91999 0,2.12 -1.24,3.44 -0.68,0.67999 -2.4,2.16 -4.8,2.16 -2.43999,0 -3.84,-1.56001 -3.84,-3.16 0,-1.36 0.92001,-2.84001 3.2,-3.4 1.68,-0.4 4.12001,-0.28 6.04,-0.28 l 0.64,0"
         style=""
         id="path3059" />
      <path
         d="m 779.50288,215.18777 0,26.6 1.88,0 1,-2.4 c 1.2,1.79999 3.20001,2.88 5.4,2.88 3.76,0 7.64,-3.20001 7.64,-9.84 0,-6.36 -3.76,-9.32 -7.36,-9.32 -2.31999,0 -4.48,1.24 -5.64,3.24 l 0,-10.24 c 0,-0.24 0.04,-0.32 0.24,-0.48 0.08,-0.04 0.28,-0.2 0.24,-0.44 l -3.4,0 m 7.56,10.4 c 1.72,0 5.36,1 5.36,7.48 0,5.55999 -3.6,6.6 -5.4,6.6 -1.24,0 -4,-0.48001 -4.48,-4 -0.12,-0.92 -0.12,-2.00001 -0.12,-3.6 0,-1.64 0.08,-2.84001 0.48,-3.84 0.68,-1.64 2.36001,-2.64 4.16,-2.64"
         style=""
         id="path3061" />
      <path
         d="m 814.42288,225.94777 c -1.68,-1.84 -4.12,-2.84 -6.84,-2.84 -4.23999,0 -7,2.36 -7,5.08 0,3.19999 3.44,4.36 4.44,4.72 1.56,0.55999 3.56,1.04 4.92,1.68 1.52,0.71999 1.8,1.68 1.8,2.32 0,1.71999 -2.08,2.88 -4.68,2.88 -3.11999,0 -5.12,-1.88001 -5.72,-2.52 -0.12,-0.16 -0.12,-0.28 -0.12,-0.44 0,-0.04 0.04,-0.28 -0.16,-0.36 l -1.68,2.84 c 2.16,1.99999 4.96001,2.92 7.72,2.92 5,0 7.6,-2.96001 7.6,-5.72 0,-1.24 -0.52,-2.92001 -2.68,-4.12 -2.03999,-1.16 -5,-1.56001 -6.72,-2.4 -1.48,-0.72 -1.8,-1.60001 -1.8,-2.24 0,-1.44 1.80001,-2.48 3.84,-2.48 2.64,0 4.4,1.6 5.08,2.52 0.12,0.12 0.08,0.24 0.08,0.36 0,0.24 0.16,0.32 0.24,0.32 l 1.68,-2.52"
         style=""
         id="path3063" />
      <path
         d="m 835.54288,232.74777 c 0,-6.32 -4,-9.6 -8.16,-9.6 -4.63999,0 -8.64,4 -8.64,9.68 0,5.55999 3.96001,9.48 8.56,9.48 4.32,0 8.24,-3.48001 8.24,-9.56 m -8.36,-7.16 c 2.64,0 5.44,2.28 5.44,7.28 0,4.59999 -2.64,6.92 -5.28,6.92 -2.91999,0 -5.56,-2.72001 -5.56,-7.24 0,-4.48 2.60001,-6.96 5.4,-6.96"
         style=""
         id="path3065" />
      <path
         d="m 840.50288,215.22777 0,2.32 5.2,0 0,21.96 -5.44,0 0,2.28 13.72,0 0,-2.28 -5.4,0 0,-24.28 -8.08,0"
         style=""
         id="path3067" />
      <path
         d="m 859.62288,223.54777 0,10.2 c 0,1.55999 0,3.16 0.72,4.8 1.04,2.39999 3.28001,3.72 5.68,3.72 2.28,0 4.44,-1.24001 5.64,-3.24 l -0.04,1.36 c 0,0.48 0,0.96 0.08,1.4 l 3.04,0 c -0.2,-0.52 -0.24,-1.12001 -0.24,-1.64 l 0,-16.6 -2.88,0 0,10.04 c 0,1.39999 -0.12,2.48 -0.72,3.6 -0.84,1.55999 -2.48,2.72 -4.24,2.72 -1.4,0 -2.76,-0.80001 -3.48,-2.24 -0.64,-1.28 -0.64,-2.72001 -0.64,-3.92 l 0,-10.2 -2.92,0"
         style=""
         id="path3069" />
      <path
         d="m 884.66288,218.62777 -0.36,4.92 -4.36,0 -0.04,2.36 4.28,0 c -0.24,3.11999 -0.36,6.24 -0.36,9.32 0,1.63999 0,3.48 1.08,5 0.88,1.19999 2.28001,1.92 4.16,1.92 2.16,0 4.28,-0.92001 5.84,-2.04 l -0.88,-2.28 c -1.56,1.15999 -3,1.68 -4.12,1.68 -1.36,0 -2.76,-0.76001 -3.08,-2.96 0,-0.16 -0.12,-0.84001 -0.12,-3.52 0,-2.36 0.12,-4.76001 0.36,-7.12 l 6,0 0,-2.4 -5.96,0 c 0,0 0.28,-3.28001 0.48,-4.32 0.04,-0.4 0.36,-0.64 0.2,-1.08 l -3.12,0.52"
         style=""
         id="path3071" />
      <path
         d="m 907.46288,223.10777 c -4.35999,0 -8.4,3.12 -8.4,9.76 0,6.11999 3.80001,9.36 8.76,9.36 2.64,0 5,-0.96001 6.56,-2.84 l -1.6,-1.56 c -1.16,1.35999 -2.92,2.08 -4.72,2.08 -2.43999,0 -6,-1.36001 -6.2,-6.84 l 12.96,0 c 0.12,-1.24 0.08,-2.44001 -0.12,-3.48 -0.84,-4.92 -4.24,-6.48 -7.24,-6.48 m -5.52,7.76 c 0.6,-4.32 3.36001,-5.56 5.32,-5.56 2.96,0 5.08,2.6 4.72,5.56 l -10.04,0"
         style=""
         id="path3073" />
    </g>
    <path
       sodipodi:type="arc"
       style="fill:none;stroke:#00c000;stroke-width:10;stroke-miterlimit:4;stroke-opacity:1;stroke-dasharray:none"
       id="path3906"
       sodipodi:cx="284.86301"
       sodipodi:cy="294.74777"
       sodipodi:rx="206.07112"
       sodipodi:ry="103.03556"
       d="m 490.93413,294.74777 c 0,56.90497 -92.26119,103.03556 -206.07112,103.03556 -113.80994,0 -206.071125,-46.13059 -206.071125,-103.03556 0,-56.90497 92.261185,-103.03556 206.071125,-103.03556 113.80993,0 206.07112,46.13059 206.07112,103.03556 z"
       transform="translate(5.9999708,-66)" />
    <path
       transform="translate(228,-66)"
       d="m 490.93413,294.74777 c 0,56.90497 -92.26119,103.03556 -206.07112,103.03556 -113.80994,0 -206.071125,-46.13059 -206.071125,-103.03556 0,-56.90497 92.261185,-103.03556 206.071125,-103.03556 113.80993,0 206.07112,46.13059 206.07112,103.03556 z"
       sodipodi:ry="103.03556"
       sodipodi:rx="206.07112"
       sodipodi:cy="294.74777"
       sodipodi:cx="284.86301"
       id="path3908"
       style="fill:none;stroke:#ff0000;stroke-width:10;stroke-miterlimit:4;stroke-opacity:1;stroke-dasharray:10, 20;stroke-dashoffset:0"
       sodipodi:type="arc" />
    <path
       sodipodi:type="arc"
       style="fill:none;stroke:#0000db;stroke-width:10;stroke-miterlimit:4;stroke-opacity:1;stroke-dasharray:none"
       id="path3910"
       sodipodi:cx="284.86301"
       sodipodi:cy="294.74777"
       sodipodi:rx="206.07112"
       sodipodi:ry="103.03556"
       d="m 490.93413,294.74777 c 0,56.90497 -92.26119,103.03556 -206.07112,103.03556 -113.80994,0 -206.071125,-46.13059 -206.071125,-103.03556 0,-56.90497 92.261185,-103.03556 206.071125,-103.03556 113.80993,0 206.07112,46.13059 206.07112,103.03556 z"
       transform="translate(449.99997,-66)" />
    <flowRoot
       xml:space="preserve"
       id="flowRoot3931"
       style="font-size:40px;font-style:normal;font-weight:normal;line-height:125%;letter-spacing:0px;word-spacing:0px;fill:#000000;fill-opacity:1;stroke:none;font-family:sans;-inkscape-font-specification:sans"
       transform="translate(-106.33143,21.840949)"><flowRegion
         id="flowRegion3933"><rect
           id="rect3935"
           width="258.57144"
           height="44.285713"
           x="265.71429"
           y="317.79953" /></flowRegion><flowPara
         id="flowPara3937">re</flowPara></flowRoot>    <g
       style="font-size:40px;font-style:normal;font-weight:normal;line-height:125%;letter-spacing:0px;word-spacing:0px;fill:#00c000;fill-opacity:1;stroke:none;font-family:Open Sans;-inkscape-font-specification:Open Sans"
       id="text3939">
      <path
         d="m 223.97821,371.19403 0,11.875 -3.32031,0 0,-28.55469 7.83203,0 c 3.50259,3e-5 6.08722,0.6706 7.75391,2.01172 1.67966,1.34117 2.5195,3.3594 2.51953,6.05469 -3e-5,3.77606 -1.91409,6.32814 -5.74219,7.65625 l 7.75391,12.83203 -3.92579,0 -6.91406,-11.875 -5.95703,0 m 0,-2.85156 4.55078,0 c 2.34374,1e-5 4.06249,-0.46223 5.15625,-1.38672 1.09373,-0.93748 1.64061,-2.33722 1.64063,-4.19922 -2e-5,-1.888 -0.55992,-3.24867 -1.67969,-4.08203 -1.10679,-0.83331 -2.89064,-1.24997 -5.35156,-1.25 l -4.31641,0 0,10.91797"
         style=""
         id="path3014" />
      <path
         d="m 253.97821,383.45966 c -3.16407,0 -5.66407,-0.96355 -7.5,-2.89063 -1.82292,-1.92708 -2.73438,-4.60286 -2.73437,-8.02734 -1e-5,-3.45051 0.84635,-6.19139 2.53906,-8.22266 1.70572,-2.03123 3.99087,-3.04685 6.85547,-3.04687 2.68227,2e-5 4.80467,0.88543 6.36718,2.65625 1.56248,1.75783 2.34373,4.08204 2.34375,6.97265 l 0,2.05078 -14.74609,0 c 0.0651,2.51303 0.69661,4.42058 1.89453,5.72266 1.21093,1.30209 2.91015,1.95313 5.09766,1.95312 2.30467,1e-5 4.58331,-0.48176 6.83594,-1.44531 l 0,2.89063 c -1.14586,0.49479 -2.23309,0.84635 -3.26172,1.05468 -1.01564,0.22136 -2.24611,0.33204 -3.69141,0.33204 M 253.0993,363.987 c -1.71876,2e-5 -3.09245,0.55991 -4.12109,1.67969 -1.01563,1.1198 -1.61459,2.66928 -1.79687,4.64843 l 11.1914,0 c -2e-5,-2.04425 -0.45574,-3.60675 -1.36719,-4.6875 -0.91147,-1.09373 -2.21355,-1.6406 -3.90625,-1.64062"
         style=""
         id="path3016" />
      <path
         d="m 270.5993,383.06903 -3.24218,0 0,-30.39062 3.24218,0 0,30.39062"
         style=""
         id="path3018" />
      <path
         d="m 290.67743,383.06903 -0.64453,-3.04687 -0.15625,0 c -1.06773,1.34114 -2.13543,2.2526 -3.20313,2.73437 -1.0547,0.46875 -2.37631,0.70313 -3.96484,0.70313 -2.1224,0 -3.78907,-0.54688 -5,-1.64063 -1.19792,-1.09375 -1.79688,-2.64973 -1.79688,-4.66797 0,-4.3229 3.45703,-6.58853 10.3711,-6.79687 l 3.63281,-0.11719 0,-1.32813 c -2e-5,-1.67967 -0.3646,-2.91665 -1.09375,-3.71093 -0.71616,-0.80728 -1.8685,-1.21092 -3.45703,-1.21094 -1.78386,2e-5 -3.80209,0.54689 -6.05469,1.64062 l -0.99609,-2.48046 c 1.05468,-0.5729 2.20702,-1.02212 3.45703,-1.34766 1.26301,-0.3255 2.52603,-0.48826 3.78906,-0.48828 2.55207,2e-5 4.44009,0.56643 5.66406,1.69922 1.23696,1.13283 1.85545,2.94923 1.85547,5.44922 l 0,14.60937 -2.40234,0 m -7.32422,-2.28516 c 2.01822,1e-5 3.60025,-0.55338 4.74609,-1.66015 1.15884,-1.10677 1.73827,-2.65625 1.73829,-4.64844 l 0,-1.93359 -3.24219,0.13672 c -2.57814,0.0912 -4.44011,0.4948 -5.58594,1.21093 -1.13282,0.70314 -1.69922,1.8034 -1.69922,3.30078 0,1.17188 0.35156,2.06381 1.05469,2.67579 0.71614,0.61198 1.71223,0.91797 2.98828,0.91796"
         style=""
         id="path3020" />
      <path
         d="m 306.69305,380.78387 c 0.57291,1e-5 1.12629,-0.0391 1.66016,-0.11718 0.53384,-0.0912 0.95702,-0.18229 1.26953,-0.27344 l 0,2.48047 c -0.35157,0.16927 -0.87241,0.30599 -1.5625,0.41015 -0.67709,0.11719 -1.28907,0.17579 -1.83594,0.17579 -4.14063,0 -6.21094,-2.18099 -6.21093,-6.54297 l 0,-12.73438 -3.06641,0 0,-1.5625 3.06641,-1.34765 1.36718,-4.57032 1.875,0 0,4.96094 6.21094,0 0,2.51953 -6.21094,0 0,12.59766 c 0,1.28907 0.30599,2.27865 0.91797,2.96875 0.61197,0.69011 1.45182,1.03516 2.51953,1.03515"
         style=""
         id="path3022" />
      <path
         d="m 317.1618,383.06903 -3.24218,0 0,-21.40625 3.24218,0 0,21.40625 M 313.64618,355.862 c 0,-0.74216 0.18229,-1.28252 0.54687,-1.62109 0.36458,-0.35154 0.82031,-0.52732 1.36719,-0.52735 0.52083,3e-5 0.97005,0.17581 1.34766,0.52735 0.3776,0.35159 0.5664,0.89195 0.5664,1.62109 0,0.72919 -0.1888,1.27607 -0.5664,1.64062 -0.37761,0.35159 -0.82683,0.52737 -1.34766,0.52735 -0.54688,2e-5 -1.00261,-0.17576 -1.36719,-0.52735 -0.36458,-0.36455 -0.54687,-0.91143 -0.54687,-1.64062"
         style=""
         id="path3024" />
      <path
         d="m 328.76337,383.06903 -8.125,-21.40625 3.47656,0 4.60937,12.69531 c 1.04166,2.96876 1.65364,4.89584 1.83594,5.78125 l 0.15625,0 c 0.14322,-0.6901 0.59244,-2.11588 1.34766,-4.27734 0.76821,-2.17447 2.48045,-6.90754 5.13672,-14.19922 l 3.47656,0 -8.125,21.40625 -3.78906,0"
         style=""
         id="path3026" />
      <path
         d="m 353.19696,383.45966 c -3.16407,0 -5.66407,-0.96355 -7.5,-2.89063 -1.82292,-1.92708 -2.73438,-4.60286 -2.73437,-8.02734 -10e-6,-3.45051 0.84635,-6.19139 2.53906,-8.22266 1.70572,-2.03123 3.99087,-3.04685 6.85547,-3.04687 2.68227,2e-5 4.80467,0.88543 6.36718,2.65625 1.56248,1.75783 2.34373,4.08204 2.34375,6.97265 l 0,2.05078 -14.74609,0 c 0.0651,2.51303 0.69661,4.42058 1.89453,5.72266 1.21093,1.30209 2.91015,1.95313 5.09766,1.95312 2.30467,1e-5 4.58331,-0.48176 6.83594,-1.44531 l 0,2.89063 c -1.14586,0.49479 -2.23309,0.84635 -3.26172,1.05468 -1.01564,0.22136 -2.24611,0.33204 -3.69141,0.33204 M 352.31805,363.987 c -1.71876,2e-5 -3.09245,0.55991 -4.12109,1.67969 -1.01563,1.1198 -1.61459,2.66928 -1.79687,4.64843 l 11.1914,0 c -2e-5,-2.04425 -0.45574,-3.60675 -1.36719,-4.6875 -0.91147,-1.09373 -2.21355,-1.6406 -3.90625,-1.64062"
         style=""
         id="path3028" />
    </g>
    <g
       style="font-size:40px;font-style:normal;font-weight:normal;line-height:125%;letter-spacing:0px;word-spacing:0px;fill:#ff0000;fill-opacity:1;stroke:none;font-family:Open Sans;-inkscape-font-specification:Open Sans"
       id="text3943">
      <path
         d="m 470.53879,383.06903 -3.32031,0 0,-28.55469 15.91796,0 0,2.94922 -12.59765,0 0,10.44922 11.83594,0 0,2.94922 -11.83594,0 0,12.20703"
         style=""
         id="path3031" />
      <path
         d="m 490.59738,383.06903 -3.24219,0 0,-21.40625 3.24219,0 0,21.40625 M 487.08176,355.862 c -10e-6,-0.74216 0.18228,-1.28252 0.54687,-1.62109 0.36458,-0.35154 0.82031,-0.52732 1.36719,-0.52735 0.52083,3e-5 0.97005,0.17581 1.34766,0.52735 0.37759,0.35159 0.56639,0.89195 0.5664,1.62109 -10e-6,0.72919 -0.18881,1.27607 -0.5664,1.64062 -0.37761,0.35159 -0.82683,0.52737 -1.34766,0.52735 -0.54688,2e-5 -1.00261,-0.17576 -1.36719,-0.52735 -0.36459,-0.36455 -0.54688,-0.91143 -0.54687,-1.64062"
         style=""
         id="path3033" />
      <path
         d="m 502.66769,372.112 -7.4414,-10.44922 3.6914,0 5.64454,8.20313 5.625,-8.20313 3.65234,0 -7.44141,10.44922 7.83203,10.95703 -3.67187,0 -5.99609,-8.67187 -6.05469,8.67187 -3.67188,0 7.83203,-10.95703"
         style=""
         id="path3035" />
      <path
         d="m 527.49191,383.45966 c -3.16407,0 -5.66407,-0.96355 -7.5,-2.89063 -1.82292,-1.92708 -2.73437,-4.60286 -2.73437,-8.02734 0,-3.45051 0.84635,-6.19139 2.53906,-8.22266 1.70572,-2.03123 3.99088,-3.04685 6.85547,-3.04687 2.68228,2e-5 4.80467,0.88543 6.36719,2.65625 1.56248,1.75783 2.34373,4.08204 2.34375,6.97265 l 0,2.05078 -14.7461,0 c 0.0651,2.51303 0.69661,4.42058 1.89453,5.72266 1.21093,1.30209 2.91015,1.95313 5.09766,1.95312 2.30467,1e-5 4.58332,-0.48176 6.83594,-1.44531 l 0,2.89063 c -1.14585,0.49479 -2.23309,0.84635 -3.26172,1.05468 -1.01564,0.22136 -2.24611,0.33204 -3.69141,0.33204 m -0.8789,-19.47266 c -1.71876,2e-5 -3.09246,0.55991 -4.1211,1.67969 -1.01563,1.1198 -1.61459,2.66928 -1.79687,4.64843 l 11.1914,0 c -10e-6,-2.04425 -0.45574,-3.60675 -1.36718,-4.6875 -0.91148,-1.09373 -2.21356,-1.6406 -3.90625,-1.64062"
         style=""
         id="path3037" />
      <path
         d="m 555.44113,380.19794 -0.17578,0 c -1.49741,2.17448 -3.73699,3.26172 -6.71875,3.26172 -2.79949,0 -4.98047,-0.95703 -6.54297,-2.8711 -1.54948,-1.91406 -2.32422,-4.63541 -2.32422,-8.16406 0,-3.52863 0.78125,-6.26951 2.34375,-8.22266 1.5625,-1.9531 3.73697,-2.92966 6.52344,-2.92968 2.90363,2e-5 5.13019,1.0547 6.67969,3.16406 l 0.2539,0 -0.13671,-1.54297 -0.0781,-1.50391 0,-8.71093 3.24219,0 0,30.39062 -2.63672,0 -0.42969,-2.87109 m -6.48437,0.54687 c 2.21352,0 3.81509,-0.59895 4.80468,-1.79687 1.00259,-1.21094 1.50389,-3.15755 1.50391,-5.83985 l 0,-0.68359 c -2e-5,-3.03384 -0.50783,-5.1953 -1.52344,-6.48438 -1.00262,-1.30206 -2.61069,-1.9531 -4.82422,-1.95312 -1.90105,2e-5 -3.35938,0.74221 -4.375,2.22656 -1.00261,1.47137 -1.50391,3.5547 -1.5039,6.25 -10e-6,2.73438 0.50129,4.79818 1.5039,6.19141 1.0026,1.39323 2.47395,2.08984 4.41407,2.08984"
         style=""
         id="path3039" />
    </g>
    <g
       style="font-size:40px;font-style:normal;font-weight:normal;line-height:125%;letter-spacing:0px;word-spacing:0px;fill:#0000db;fill-opacity:1;stroke:none;font-family:Open Sans;-inkscape-font-specification:Open Sans"
       id="text3947">
      <path
         d="m 675.62469,383.06903 -3.55468,-9.08203 -11.44532,0 -3.51562,9.08203 -3.35938,0 11.28907,-28.67187 2.79297,0 11.23046,28.67187 -3.4375,0 m -4.58984,-12.07031 -3.32031,-8.84766 c -0.4297,-1.11977 -0.87241,-2.49346 -1.32813,-4.12109 -0.28647,1.25002 -0.69662,2.62372 -1.23047,4.12109 l -3.35937,8.84766 9.23828,0"
         style=""
         id="path3042" />
      <path
         d="m 692.46063,361.31122 c 2.81249,2e-5 4.99347,0.96356 6.54297,2.89062 1.56248,1.91408 2.34373,4.62892 2.34375,8.14453 -2e-5,3.51564 -0.78778,6.25001 -2.36328,8.20313 -1.56252,1.9401 -3.737,2.91016 -6.52344,2.91016 -1.39324,0 -2.66928,-0.25391 -3.82812,-0.76172 -1.14584,-0.52084 -2.10939,-1.31511 -2.89063,-2.38282 l -0.23437,0 -0.6836,2.75391 -2.32422,0 0,-30.39062 3.24219,0 0,7.38281 c 0,1.65367 -0.0521,3.13804 -0.15625,4.45312 l 0.15625,0 c 1.51041,-2.13539 3.74999,-3.2031 6.71875,-3.20312 m -0.46875,2.71484 c -2.21355,2e-5 -3.8086,0.63804 -4.78515,1.91406 -0.97657,1.26304 -1.46485,3.39846 -1.46485,6.40625 0,3.00782 0.5013,5.16277 1.50391,6.46485 1.00259,1.28906 2.61066,1.93359 4.82422,1.93359 1.99217,0 3.47654,-0.72265 4.45312,-2.16797 0.97655,-1.45832 1.46483,-3.54817 1.46485,-6.26953 -2e-5,-2.78644 -0.4883,-4.86326 -1.46485,-6.23047 -0.97658,-1.36717 -2.48699,-2.05076 -4.53125,-2.05078"
         style=""
         id="path3044" />
      <path
         d="m 720.83954,377.22919 c -2e-5,1.99219 -0.74221,3.52865 -2.22656,4.60937 -1.48439,1.08073 -3.56772,1.6211 -6.25,1.6211 -2.83855,0 -5.05209,-0.44922 -6.64063,-1.34766 l 0,-3.00781 c 1.02864,0.52083 2.1289,0.93099 3.30078,1.23047 1.18489,0.29948 2.32421,0.44922 3.41797,0.44921 1.6927,1e-5 2.99478,-0.26692 3.90625,-0.80078 0.91145,-0.54687 1.36717,-1.37369 1.36719,-2.48047 -2e-5,-0.83332 -0.3646,-1.54296 -1.09375,-2.1289 -0.71616,-0.59895 -2.12241,-1.30208 -4.21875,-2.10938 -1.9922,-0.74217 -3.41147,-1.3867 -4.25781,-1.93359 -0.83334,-0.55988 -1.45834,-1.19139 -1.875,-1.89453 -0.40365,-0.70311 -0.60547,-1.54296 -0.60547,-2.51953 0,-1.74478 0.70963,-3.11847 2.1289,-4.1211 1.41927,-1.0156 3.36588,-1.52341 5.83985,-1.52343 2.30467,2e-5 4.55727,0.46877 6.75781,1.40625 l -1.15234,2.63671 c -2.14845,-0.88539 -4.09507,-1.3281 -5.83985,-1.32812 -1.53646,2e-5 -2.69532,0.2409 -3.47656,0.72266 -0.78126,0.48178 -1.17188,1.14585 -1.17188,1.99218 0,0.57294 0.14323,1.06122 0.42969,1.46485 0.29948,0.40366 0.77474,0.78777 1.42578,1.15234 0.65104,0.3646 1.90104,0.89194 3.75,1.58203 2.53905,0.92449 4.25129,1.85548 5.13672,2.79297 0.89842,0.93751 1.34764,2.11589 1.34766,3.53516"
         style=""
         id="path3046" />
      <path
         d="m 744.57001,372.34637 c -2e-5,3.4896 -0.87893,6.21746 -2.63672,8.1836 -1.75783,1.95312 -4.18621,2.92969 -7.28516,2.92969 -1.91407,0 -3.61329,-0.44922 -5.09765,-1.34766 -1.48438,-0.89844 -2.63022,-2.1875 -3.4375,-3.86719 -0.8073,-1.67968 -1.21094,-3.64582 -1.21094,-5.89844 0,-3.48956 0.87239,-6.20441 2.61719,-8.14453 1.74478,-1.9531 4.16665,-2.92966 7.26562,-2.92968 2.99478,2e-5 5.37108,0.99611 7.12891,2.98828 1.77081,1.9922 2.65623,4.68751 2.65625,8.08593 m -16.3086,0 c 0,2.73439 0.54687,4.81772 1.64063,6.25 1.09374,1.4323 2.70181,2.14844 4.82422,2.14844 2.12238,0 3.73045,-0.70963 4.82422,-2.1289 1.10675,-1.43229 1.66013,-3.52213 1.66015,-6.26954 -2e-5,-2.72134 -0.5534,-4.78514 -1.66015,-6.1914 -1.09377,-1.41925 -2.71486,-2.12889 -4.86329,-2.12891 -2.1224,2e-5 -3.72396,0.69663 -4.80468,2.08985 -1.08074,1.39324 -1.6211,3.47006 -1.6211,6.23046"
         style=""
         id="path3048" />
      <path
         d="m 753.47626,383.06903 -3.24219,0 0,-30.39062 3.24219,0 0,30.39062"
         style=""
         id="path3050" />
      <path
         d="m 763.43719,361.66278 0,13.88672 c 0,1.7448 0.39713,3.04688 1.19141,3.90625 0.79426,0.85938 2.03775,1.28906 3.73047,1.28906 2.23957,0 3.87368,-0.61197 4.90234,-1.83594 1.04165,-1.22395 1.56249,-3.22264 1.5625,-5.99609 l 0,-11.25 3.24219,0 0,21.40625 -2.67578,0 -0.46875,-2.87109 -0.17578,0 c -0.66408,1.05469 -1.58856,1.86198 -2.77344,2.42187 -1.17189,0.5599 -2.51303,0.83985 -4.02344,0.83985 -2.60417,0 -4.55729,-0.61849 -5.85937,-1.85547 -1.28907,-1.23698 -1.9336,-3.21614 -1.9336,-5.9375 l 0,-14.00391 3.28125,0"
         style=""
         id="path3052" />
      <path
         d="m 791.83563,380.78387 c 0.57291,1e-5 1.12629,-0.0391 1.66016,-0.11718 0.53384,-0.0912 0.95702,-0.18229 1.26953,-0.27344 l 0,2.48047 c -0.35158,0.16927 -0.87241,0.30599 -1.5625,0.41015 -0.67709,0.11719 -1.28907,0.17579 -1.83594,0.17579 -4.14063,0 -6.21094,-2.18099 -6.21094,-6.54297 l 0,-12.73438 -3.0664,0 0,-1.5625 3.0664,-1.34765 1.36719,-4.57032 1.875,0 0,4.96094 6.21094,0 0,2.51953 -6.21094,0 0,12.59766 c 0,1.28907 0.30598,2.27865 0.91797,2.96875 0.61197,0.69011 1.45181,1.03516 2.51953,1.03515"
         style=""
         id="path3054" />
      <path
         d="m 808.10516,383.45966 c -3.16407,0 -5.66407,-0.96355 -7.5,-2.89063 -1.82292,-1.92708 -2.73437,-4.60286 -2.73437,-8.02734 0,-3.45051 0.84635,-6.19139 2.53906,-8.22266 1.70572,-2.03123 3.99088,-3.04685 6.85547,-3.04687 2.68228,2e-5 4.80467,0.88543 6.36719,2.65625 1.56248,1.75783 2.34373,4.08204 2.34375,6.97265 l 0,2.05078 -14.7461,0 c 0.0651,2.51303 0.69661,4.42058 1.89453,5.72266 1.21093,1.30209 2.91015,1.95313 5.09766,1.95312 2.30467,1e-5 4.58332,-0.48176 6.83594,-1.44531 l 0,2.89063 c -1.14585,0.49479 -2.23309,0.84635 -3.26172,1.05468 -1.01564,0.22136 -2.24611,0.33204 -3.69141,0.33204 m -0.8789,-19.47266 c -1.71876,2e-5 -3.09246,0.55991 -4.1211,1.67969 -1.01563,1.1198 -1.61459,2.66928 -1.79687,4.64843 l 11.1914,0 c -10e-6,-2.04425 -0.45574,-3.60675 -1.36718,-4.6875 -0.91148,-1.09373 -2.21356,-1.6406 -3.90625,-1.64062"
         style=""
         id="path3056" />
    </g>
  </g>
</svg>
